<svg xmlns="http://www.w3.org/2000/svg" viewBox="0 0 128 128">
  <path fill="#512BD4" d="M128 64c0 35.346-28.654 64-64 64C28.654 128 0 99.346 0 64 0 28.654 28.654 0 64 0c35.346 0 64 28.654 64 64z"/>
  <path fill="#fff" d="M13.807 85.089c-1.896 0-3.471-1.575-3.471-3.471s1.575-3.471 3.471-3.471c1.896 0 3.471 1.575 3.471 3.471s-1.575 3.471-3.471 3.471zm22.366-1.958l-12.832-33.664h7.014l9.299 25.715 9.362-25.715h6.951l-12.832 33.664H36.173zm34.819 0V49.467h16.717v5.398H77.31v8.041h9.016v5.142H77.31v11.685h10.463v5.398H70.992zm28.129-5.525c0-5.142 3.791-8.423 11.558-8.87l5.461-.319v-1.735c0-2.879-1.83-4.454-5.334-4.454-3.567 0-5.524 1.511-5.94 4.071h-6.183c.255-5.461 4.742-9.475 12.251-9.475 7.381 0 11.685 3.758 11.685 10.145v21.043h-5.972v-4.518h-.064c-1.958 3.312-5.461 5.078-9.603 5.078-5.716-.001-8.859-3.409-8.859-7.966zm17.019-2.879v-1.638l-5.461.319c-3.567.192-5.461 1.575-5.461 3.886 0 2.367 1.958 3.695 5.014 3.695 4.166 0 6.908-2.495 6.908-6.262z"/>
</svg>
